<svg width="28" height="23" viewBox="0 0 28 23" fill="none" xmlns="http://www.w3.org/2000/svg">
<path d="M26.2215 14.2588V6.78071L26.532 6.68757C27.7253 6.32941 27.9758 5.72306 27.9758 5.27744C27.9758 4.83182 27.7252 4.22547 26.5319 3.86747L16.3201 0.803876C15.6911 0.61519 14.8668 0.511292 13.9991 0.511292C13.1314 0.511292 12.3072 0.61519 11.6781 0.803876L1.46625 3.86747C0.272762 4.22547 0.0222168 4.83182 0.0222168 5.27749C0.0222168 5.72311 0.272707 6.32952 1.4662 6.68762L5.28541 7.83339V14.0071C5.28541 14.7737 5.78372 15.8536 8.15765 16.6449C9.73004 17.169 11.8046 17.4577 13.999 17.4577C16.1934 17.4577 18.268 17.169 19.8404 16.6449C22.2143 15.8535 22.7126 14.7737 22.7126 14.0071V7.83345L24.5836 7.27214V14.2588C23.5651 14.6018 22.8292 15.5651 22.8292 16.6978V20.2065C22.8292 21.6254 23.9835 22.7798 25.4025 22.7798C26.8214 22.7798 27.9758 21.6255 27.9758 20.2065V16.6978C27.9759 15.5651 27.24 14.6017 26.2215 14.2588ZM12.1487 2.37272C12.6223 2.2306 13.2967 2.14914 13.9991 2.14914C14.7014 2.14914 15.3759 2.2306 15.8494 2.37266L25.532 5.27749L21.6543 6.44084C21.6521 6.44155 21.6499 6.44215 21.6477 6.44286L15.8495 8.18238C15.3759 8.32444 14.7015 8.4059 13.9992 8.4059C13.2969 8.4059 12.6224 8.32444 12.1488 8.18238L6.3506 6.44286C6.34836 6.44215 6.34618 6.44155 6.34394 6.44084L2.46625 5.27749L12.1487 2.37272ZM21.0748 11.8564C21.0748 14.1126 20.7775 14.606 19.3225 15.0909C17.9127 15.5609 16.0221 15.8197 13.9991 15.8197C11.976 15.8197 10.0854 15.5609 8.67566 15.0909C7.22077 14.606 6.92332 14.1126 6.92332 14.007V8.32471L11.6781 9.75116C12.3071 9.93985 13.1314 10.0437 13.9991 10.0437C14.8668 10.0437 15.691 9.93985 16.3201 9.75116L21.0748 8.32471V11.8564ZM26.338 20.2065C26.338 20.7223 25.9184 21.1419 25.4026 21.1419C24.8868 21.1419 24.4672 20.7223 24.4672 20.2065V16.6977C24.4672 16.1819 24.8867 15.7622 25.4026 15.7622C25.9184 15.7622 26.338 16.1819 26.338 16.6977V20.2065Z" fill="white"/>
</svg>
