<svg width="26" height="27" viewBox="0 0 26 27" fill="none" xmlns="http://www.w3.org/2000/svg">
<path d="M25.3004 12.286C25.2998 12.2854 25.2992 12.2849 25.2986 12.2843L14.6926 1.67871C14.2406 1.22644 13.6395 0.977295 13.0002 0.977295C12.3609 0.977295 11.7598 1.22624 11.3075 1.67851L0.70715 12.2787C0.703579 12.2823 0.700008 12.286 0.696438 12.2896C-0.231907 13.2233 -0.23032 14.7382 0.701 15.6695C1.12649 16.0952 1.68846 16.3418 2.2893 16.3676C2.3137 16.37 2.3383 16.3712 2.36309 16.3712H2.78581V24.1762C2.78581 25.7207 4.04245 26.9773 5.58731 26.9773H9.73669C10.1572 26.9773 10.4984 26.6363 10.4984 26.2156V20.0964C10.4984 19.3916 11.0717 18.8184 11.7765 18.8184H14.2239C14.9287 18.8184 15.5019 19.3916 15.5019 20.0964V26.2156C15.5019 26.6363 15.8429 26.9773 16.2637 26.9773H20.4131C21.9579 26.9773 23.2146 25.7207 23.2146 24.1762V16.3712H23.6065C24.2456 16.3712 24.8467 16.1222 25.2992 15.6699C26.2315 14.737 26.2319 13.2195 25.3004 12.286Z" fill="white"/>
</svg>
