<svg width="28" height="27" viewBox="0 0 28 27" fill="none" xmlns="http://www.w3.org/2000/svg">
<path d="M19.3543 20.4928V22.5323C19.3543 24.7815 17.5245 26.6113 15.2753 26.6113H5.02668C2.77743 26.6113 0.947632 24.7815 0.947632 22.5323V4.58448C0.947632 2.33523 2.77743 0.505432 5.02668 0.505432H15.2753C17.5245 0.505432 19.3543 2.33523 19.3543 4.58448V6.624C19.3543 7.18726 18.8978 7.64377 18.3346 7.64377C17.7713 7.64377 17.3148 7.18726 17.3148 6.624V4.58448C17.3148 3.45995 16.3998 2.54496 15.2753 2.54496H5.02668C3.90215 2.54496 2.98716 3.45995 2.98716 4.58448V22.5323C2.98716 23.6568 3.90215 24.5718 5.02668 24.5718H15.2753C16.3998 24.5718 17.3148 23.6568 17.3148 22.5323V20.4928C17.3148 19.9295 17.7713 19.473 18.3346 19.473C18.8978 19.473 19.3543 19.9295 19.3543 20.4928ZM26.3068 11.8067L24.0233 9.52316C23.625 9.12481 22.9793 9.12481 22.5811 9.52316C22.1828 9.9213 22.1828 10.567 22.5811 10.9652L24.2054 12.5896H11.9611C11.3978 12.5896 10.9413 13.0461 10.9413 13.6094C10.9413 14.1726 11.3978 14.6291 11.9611 14.6291H24.2054L22.5811 16.2536C22.1828 16.6517 22.1828 17.2974 22.5811 17.6956C22.7803 17.8948 23.0412 17.9944 23.3021 17.9944C23.5632 17.9944 23.8242 17.8948 24.0233 17.6956L26.3068 15.4121C27.3009 14.418 27.3009 12.8007 26.3068 11.8067Z" fill="white"/>
</svg>
