<svg width="42" height="41" viewBox="0 0 42 41" fill="none" xmlns="http://www.w3.org/2000/svg">
<path d="M27.5447 0.863552C27.8434 1.33288 28.0994 1.97288 28.3127 2.78355C28.5687 3.55155 28.6967 4.36222 28.6967 5.21555C28.6967 6.87955 28.3341 8.07422 27.6087 8.79955C26.9261 9.48222 25.9874 9.82355 24.7927 9.82355H11.3527V17.0556H25.3687C25.7101 17.5249 25.9874 18.1436 26.2007 18.9116C26.4567 19.6796 26.5847 20.4902 26.5847 21.3436C26.5847 22.9649 26.2221 24.1382 25.4967 24.8636C24.8141 25.5462 23.8754 25.8876 22.6807 25.8876H11.4807V39.3916C11.0114 39.5196 10.2647 39.6476 9.24073 39.7756C8.25939 39.9036 7.27806 39.9676 6.29673 39.9676C5.31539 39.9676 4.44073 39.8822 3.67273 39.7116C2.94739 39.5836 2.32873 39.3276 1.81673 38.9436C1.30473 38.5596 0.920728 38.0262 0.664728 37.3436C0.408728 36.6609 0.280728 35.7649 0.280728 34.6556V6.81555C0.280728 4.98088 0.814061 3.53022 1.88073 2.46355C2.94739 1.39688 4.39806 0.863552 6.23273 0.863552H27.5447ZM28.9662 34.4636C28.9662 32.6716 29.5209 31.1782 30.6302 29.9836C31.7396 28.7889 33.2542 28.1916 35.1742 28.1916C37.0942 28.1916 38.6089 28.7889 39.7182 29.9836C40.8276 31.1782 41.3822 32.6716 41.3822 34.4636C41.3822 36.2556 40.8276 37.7489 39.7182 38.9436C38.6089 40.1382 37.0942 40.7356 35.1742 40.7356C33.2542 40.7356 31.7396 40.1382 30.6302 38.9436C29.5209 37.7489 28.9662 36.2556 28.9662 34.4636Z" fill="white"/>
</svg>
