<svg width="40" height="40" viewBox="0 0 40 40" fill="none" xmlns="http://www.w3.org/2000/svg">
<path d="M14.5952 22.499C14.5952 23.0618 14.464 23.54 14.2017 23.9336C13.9435 24.3229 13.5923 24.6191 13.1479 24.8223C12.7078 25.0254 12.2106 25.127 11.6562 25.127C11.1019 25.127 10.6025 25.0254 10.1582 24.8223C9.71387 24.6191 9.36263 24.3229 9.10449 23.9336C8.84635 23.54 8.71729 23.0618 8.71729 22.499C8.71729 22.1309 8.78711 21.7944 8.92676 21.4897C9.07064 21.1808 9.27165 20.9121 9.52979 20.6836C9.79215 20.4551 10.1011 20.2795 10.4565 20.1567C10.8162 20.0298 11.2119 19.9663 11.6436 19.9663C12.2106 19.9663 12.7163 20.0763 13.1606 20.2964C13.605 20.5122 13.9541 20.8105 14.208 21.1914C14.4661 21.5723 14.5952 22.0081 14.5952 22.499ZM13.4146 22.4736C13.4146 22.1309 13.3405 21.8283 13.1924 21.5659C13.0443 21.2993 12.8369 21.092 12.5703 20.9438C12.3037 20.7957 11.9948 20.7217 11.6436 20.7217C11.2839 20.7217 10.9728 20.7957 10.7104 20.9438C10.4523 21.092 10.2513 21.2993 10.1074 21.5659C9.96354 21.8283 9.8916 22.1309 9.8916 22.4736C9.8916 22.8291 9.96143 23.1338 10.1011 23.3877C10.245 23.6374 10.4481 23.8299 10.7104 23.9653C10.9771 24.0965 11.2923 24.1621 11.6562 24.1621C12.0202 24.1621 12.3333 24.0965 12.5957 23.9653C12.8581 23.8299 13.0591 23.6374 13.1987 23.3877C13.3426 23.1338 13.4146 22.8291 13.4146 22.4736ZM14.3794 18.1636C14.3794 18.6121 14.2609 19.0163 14.0239 19.376C13.7869 19.7357 13.4632 20.0192 13.0527 20.2266C12.6423 20.4339 12.1768 20.5376 11.6562 20.5376C11.1273 20.5376 10.6554 20.4339 10.2407 20.2266C9.83024 20.0192 9.50863 19.7357 9.27588 19.376C9.04313 19.0163 8.92676 18.6121 8.92676 18.1636C8.92676 17.6261 9.04313 17.1691 9.27588 16.7925C9.51286 16.4159 9.83659 16.1281 10.2471 15.9292C10.6576 15.7303 11.1252 15.6309 11.6499 15.6309C12.1789 15.6309 12.6486 15.7303 13.0591 15.9292C13.4696 16.1281 13.7912 16.4159 14.0239 16.7925C14.2609 17.1691 14.3794 17.6261 14.3794 18.1636ZM13.2051 18.1826C13.2051 17.8737 13.1395 17.6007 13.0083 17.3638C12.8771 17.1268 12.6951 16.9406 12.4624 16.8052C12.2297 16.6655 11.9588 16.5957 11.6499 16.5957C11.341 16.5957 11.0701 16.6613 10.8374 16.7925C10.6089 16.9194 10.429 17.1014 10.2979 17.3384C10.1709 17.5754 10.1074 17.8568 10.1074 18.1826C10.1074 18.5 10.1709 18.7772 10.2979 19.0142C10.429 19.2511 10.611 19.4352 10.8438 19.5664C11.0765 19.6976 11.3473 19.7632 11.6562 19.7632C11.9652 19.7632 12.2339 19.6976 12.4624 19.5664C12.6951 19.4352 12.8771 19.2511 13.0083 19.0142C13.1395 18.7772 13.2051 18.5 13.2051 18.1826ZM17.7944 19.8013H18.6323C19.0428 19.8013 19.3813 19.7336 19.6479 19.5981C19.9188 19.4585 20.1198 19.2702 20.251 19.0332C20.3864 18.792 20.4541 18.5212 20.4541 18.2207C20.4541 17.8652 20.3949 17.5669 20.2764 17.3257C20.1579 17.0845 19.9801 16.9025 19.7432 16.7798C19.5062 16.6571 19.2057 16.5957 18.8418 16.5957C18.5117 16.5957 18.2197 16.6613 17.9658 16.7925C17.7161 16.9194 17.5194 17.1014 17.3755 17.3384C17.2358 17.5754 17.166 17.8547 17.166 18.1763H15.9917C15.9917 17.7065 16.1102 17.2791 16.3472 16.894C16.5841 16.509 16.9163 16.2021 17.3438 15.9736C17.7754 15.7451 18.2747 15.6309 18.8418 15.6309C19.4004 15.6309 19.8892 15.7303 20.3081 15.9292C20.7271 16.1239 21.0529 16.4159 21.2856 16.8052C21.5184 17.1903 21.6348 17.6706 21.6348 18.2461C21.6348 18.4788 21.5798 18.7285 21.4697 18.9951C21.3639 19.2575 21.1968 19.5029 20.9683 19.7314C20.744 19.96 20.452 20.1483 20.0923 20.2964C19.7326 20.4403 19.3009 20.5122 18.7974 20.5122H17.7944V19.8013ZM17.7944 20.7661V20.0615H18.7974C19.3856 20.0615 19.8722 20.1313 20.2573 20.271C20.6424 20.4106 20.945 20.5968 21.165 20.8296C21.3893 21.0623 21.5459 21.3184 21.6348 21.5977C21.7279 21.8727 21.7744 22.1478 21.7744 22.4229C21.7744 22.8545 21.7004 23.2375 21.5522 23.5718C21.4084 23.9061 21.2031 24.1896 20.9365 24.4224C20.6742 24.6551 20.3652 24.8307 20.0098 24.9492C19.6543 25.0677 19.2671 25.127 18.8481 25.127C18.4461 25.127 18.0674 25.0698 17.7119 24.9556C17.3607 24.8413 17.0496 24.6763 16.7788 24.4604C16.508 24.2404 16.2964 23.9717 16.144 23.6543C15.9917 23.3327 15.9155 22.9666 15.9155 22.5562H17.0898C17.0898 22.8778 17.1597 23.1592 17.2993 23.4004C17.4432 23.6416 17.6463 23.8299 17.9087 23.9653C18.1753 24.0965 18.4884 24.1621 18.8481 24.1621C19.2078 24.1621 19.5168 24.1007 19.7749 23.978C20.0373 23.8511 20.2383 23.6606 20.3779 23.4067C20.5218 23.1528 20.5938 22.8333 20.5938 22.4482C20.5938 22.0632 20.5133 21.7479 20.3525 21.5024C20.1917 21.2528 19.9632 21.0687 19.667 20.9502C19.375 20.8275 19.0301 20.7661 18.6323 20.7661H17.7944ZM23.2915 18.0239V17.5352C23.2915 17.1839 23.3677 16.8644 23.52 16.5767C23.6724 16.2889 23.8903 16.0583 24.1738 15.8848C24.4574 15.7113 24.7938 15.6245 25.1831 15.6245C25.5809 15.6245 25.9194 15.7113 26.1987 15.8848C26.4823 16.0583 26.7002 16.2889 26.8525 16.5767C27.0049 16.8644 27.0811 17.1839 27.0811 17.5352V18.0239C27.0811 18.3667 27.0049 18.682 26.8525 18.9697C26.7044 19.2575 26.4886 19.4881 26.2051 19.6616C25.9258 19.8351 25.5894 19.9219 25.1958 19.9219C24.8022 19.9219 24.4616 19.8351 24.1738 19.6616C23.8903 19.4881 23.6724 19.2575 23.52 18.9697C23.3677 18.682 23.2915 18.3667 23.2915 18.0239ZM24.1738 17.5352V18.0239C24.1738 18.2186 24.2098 18.4027 24.2817 18.5762C24.3579 18.7497 24.4722 18.8914 24.6245 19.0015C24.7769 19.1073 24.9673 19.1602 25.1958 19.1602C25.4243 19.1602 25.6126 19.1073 25.7607 19.0015C25.9089 18.8914 26.0189 18.7497 26.0908 18.5762C26.1628 18.4027 26.1987 18.2186 26.1987 18.0239V17.5352C26.1987 17.3363 26.1606 17.1501 26.0845 16.9766C26.0125 16.7988 25.9004 16.6571 25.748 16.5513C25.5999 16.4412 25.4116 16.3862 25.1831 16.3862C24.9588 16.3862 24.7705 16.4412 24.6182 16.5513C24.4701 16.6571 24.3579 16.7988 24.2817 16.9766C24.2098 17.1501 24.1738 17.3363 24.1738 17.5352ZM27.792 23.229V22.7339C27.792 22.3869 27.8682 22.0695 28.0205 21.7817C28.1729 21.494 28.3908 21.2633 28.6743 21.0898C28.9578 20.9163 29.2943 20.8296 29.6836 20.8296C30.0814 20.8296 30.4199 20.9163 30.6992 21.0898C30.9827 21.2633 31.2007 21.494 31.353 21.7817C31.5054 22.0695 31.5815 22.3869 31.5815 22.7339V23.229C31.5815 23.576 31.5054 23.8934 31.353 24.1812C31.2049 24.4689 30.9891 24.6995 30.7056 24.873C30.4263 25.0465 30.0898 25.1333 29.6963 25.1333C29.3027 25.1333 28.9642 25.0465 28.6807 24.873C28.3971 24.6995 28.1771 24.4689 28.0205 24.1812C27.8682 23.8934 27.792 23.576 27.792 23.229ZM28.6743 22.7339V23.229C28.6743 23.4237 28.7103 23.6099 28.7822 23.7876C28.8584 23.9611 28.9727 24.1029 29.125 24.2129C29.2773 24.3187 29.4678 24.3716 29.6963 24.3716C29.9248 24.3716 30.1131 24.3187 30.2612 24.2129C30.4136 24.1029 30.5257 23.9611 30.5977 23.7876C30.6696 23.6141 30.7056 23.4279 30.7056 23.229V22.7339C30.7056 22.535 30.6675 22.3488 30.5913 22.1753C30.5194 22.0018 30.4072 21.8621 30.2549 21.7563C30.1068 21.6463 29.9163 21.5913 29.6836 21.5913C29.4593 21.5913 29.271 21.6463 29.1187 21.7563C28.9705 21.8621 28.8584 22.0018 28.7822 22.1753C28.7103 22.3488 28.6743 22.535 28.6743 22.7339ZM29.9756 17.0718L25.4624 24.2954L24.8022 23.8765L29.3154 16.6528L29.9756 17.0718Z" fill="#0C0B0B"/>
<mask id="path-2-inside-1_39680_9" fill="white">
<path d="M38.6358 20C39.3892 20 40.0048 20.6115 39.9535 21.3632C39.6986 25.0946 38.4013 28.69 36.1964 31.7335C33.7241 35.1463 30.2368 37.6909 26.2325 39.0041C22.2281 40.3174 17.9112 40.3322 13.8979 39.0464C9.88463 37.7606 6.38005 35.24 3.88434 31.8442C1.38864 28.4485 0.0293454 24.3512 0.000469506 20.137C-0.0284064 15.9229 1.27461 11.8074 3.72355 8.37773C6.17249 4.94811 9.64219 2.37968 13.6375 1.03903C17.2005 -0.156585 21.0192 -0.321219 24.6565 0.54962C25.3892 0.725044 25.7891 1.49516 25.5641 2.21421V2.21421C25.3392 2.93327 24.5747 3.32818 23.8401 3.16066C20.7536 2.45675 17.5233 2.61297 14.5054 3.62565C11.0552 4.78342 8.05881 7.00146 5.94395 9.96322C3.82909 12.925 2.70383 16.4791 2.72877 20.1183C2.75371 23.7576 3.92756 27.296 6.08281 30.2285C8.23806 33.161 11.2646 35.3377 14.7303 36.4481C18.1961 37.5585 21.9241 37.5457 25.3822 36.4116C28.8403 35.2775 31.8518 33.0801 33.9869 30.1329C35.8545 27.555 36.968 24.5187 37.2178 21.3628C37.2772 20.6117 37.8824 20 38.6358 20V20Z"/>
</mask>
<path d="M38.6358 20C39.3892 20 40.0048 20.6115 39.9535 21.3632C39.6986 25.0946 38.4013 28.69 36.1964 31.7335C33.7241 35.1463 30.2368 37.6909 26.2325 39.0041C22.2281 40.3174 17.9112 40.3322 13.8979 39.0464C9.88463 37.7606 6.38005 35.24 3.88434 31.8442C1.38864 28.4485 0.0293454 24.3512 0.000469506 20.137C-0.0284064 15.9229 1.27461 11.8074 3.72355 8.37773C6.17249 4.94811 9.64219 2.37968 13.6375 1.03903C17.2005 -0.156585 21.0192 -0.321219 24.6565 0.54962C25.3892 0.725044 25.7891 1.49516 25.5641 2.21421V2.21421C25.3392 2.93327 24.5747 3.32818 23.8401 3.16066C20.7536 2.45675 17.5233 2.61297 14.5054 3.62565C11.0552 4.78342 8.05881 7.00146 5.94395 9.96322C3.82909 12.925 2.70383 16.4791 2.72877 20.1183C2.75371 23.7576 3.92756 27.296 6.08281 30.2285C8.23806 33.161 11.2646 35.3377 14.7303 36.4481C18.1961 37.5585 21.9241 37.5457 25.3822 36.4116C28.8403 35.2775 31.8518 33.0801 33.9869 30.1329C35.8545 27.555 36.968 24.5187 37.2178 21.3628C37.2772 20.6117 37.8824 20 38.6358 20V20Z" stroke="#0C0B0B" stroke-width="4" mask="url(#path-2-inside-1_39680_9)"/>
</svg>
