<svg width="27" height="27" viewBox="0 0 27 27" fill="none" xmlns="http://www.w3.org/2000/svg">
<path d="M14.6299 26.9543H12.9982C11.6784 26.9543 10.6047 25.8806 10.6047 24.5609V24.0088C10.0436 23.8296 9.49844 23.6033 8.97474 23.3323L8.58352 23.7235C7.63599 24.6722 6.11819 24.6444 5.19818 23.7231L4.04489 22.5699C3.12326 21.6493 3.09675 20.132 4.0452 19.1846L4.43611 18.7936C4.16509 18.2699 3.93886 17.7249 3.75955 17.1637H3.20756C1.88786 17.1637 0.814087 16.09 0.814087 14.7702V13.1384C0.814087 11.8187 1.88786 10.745 3.20761 10.745H3.7596C3.93891 10.1838 4.16514 9.63875 4.43616 9.11505L4.04494 8.72388C3.09706 7.77701 3.12321 6.25956 4.04525 5.33854L5.19864 4.1852C6.12078 3.2618 7.63822 3.23874 8.58392 4.18551L8.97479 4.57637C9.49849 4.3054 10.0436 4.07912 10.6047 3.89981V3.34782C10.6047 2.02806 11.6784 0.954346 12.9982 0.954346H14.63C15.9497 0.954346 17.0235 2.02806 17.0235 3.34782V3.89986C17.5845 4.07912 18.1297 4.3054 18.6534 4.57642L19.0446 4.1852C19.9921 3.23651 21.5099 3.26433 22.4299 4.18556L23.5832 5.3388C24.5049 6.25941 24.5314 7.77671 23.5829 8.72413L23.192 9.11505C23.463 9.63875 23.6893 10.1838 23.8686 10.745H24.4206C25.7403 10.745 26.8141 11.8187 26.8141 13.1384V14.7702C26.8141 16.09 25.7403 17.1637 24.4206 17.1637H23.8686C23.6893 17.7249 23.463 18.2699 23.192 18.7936L23.5832 19.1849C24.5311 20.1317 24.505 21.6492 23.5829 22.5702L22.4295 23.7235C21.5074 24.6469 19.99 24.67 19.0443 23.7232L18.6534 23.3324C18.1297 23.6033 17.5845 23.8296 17.0235 24.0089V24.561C17.0235 25.8806 15.9497 26.9543 14.6299 26.9543ZM9.2294 21.7325C9.95695 22.1628 10.74 22.4878 11.5568 22.6986C11.8931 22.7854 12.1281 23.0888 12.1281 23.4362V24.5609C12.1281 25.0406 12.5185 25.4309 12.9982 25.4309H14.63C15.1097 25.4309 15.5001 25.0406 15.5001 24.5609V23.4362C15.5001 23.0888 15.7351 22.7854 16.0715 22.6986C16.8882 22.4878 17.6713 22.1628 18.3988 21.7325C18.6982 21.5555 19.0793 21.6036 19.3252 21.8496L20.1219 22.6463C20.4654 22.9902 21.017 22.9822 21.352 22.6466L22.5061 21.4926C22.8404 21.1587 22.8515 20.607 22.5064 20.2624L21.7094 19.4654C21.4635 19.2195 21.4154 18.8383 21.5924 18.539C22.0226 17.8115 22.3476 17.0285 22.5584 16.2117C22.6453 15.8753 22.9486 15.6403 23.296 15.6403H24.4206C24.9003 15.6403 25.2907 15.25 25.2907 14.7703V13.1385C25.2907 12.6588 24.9003 12.2685 24.4206 12.2685H23.296C22.9486 12.2685 22.6453 12.0334 22.5584 11.6971C22.3476 10.8803 22.0226 10.0973 21.5924 9.36976C21.4154 9.07046 21.4635 8.6893 21.7094 8.44341L22.5061 7.6467C22.8505 7.30271 22.8415 6.75123 22.5064 6.41653L21.3524 5.26253C21.0179 4.92757 20.4662 4.91777 20.1222 5.26222L19.3253 6.05923C19.0794 6.30517 18.6981 6.35331 18.3989 6.17628C17.6713 5.74601 16.8883 5.42096 16.0715 5.21017C15.7351 5.12338 15.5001 4.82002 15.5001 4.47262V3.34782C15.5001 2.86809 15.1098 2.47778 14.63 2.47778H12.9983C12.5186 2.47778 12.1282 2.86809 12.1282 3.34782V4.47252C12.1282 4.81992 11.8932 5.12328 11.5568 5.21007C10.74 5.42086 9.957 5.74591 9.22945 6.17618C8.93005 6.35315 8.54893 6.30501 8.30305 6.05913L7.5064 5.26242C7.16291 4.91853 6.61127 4.92651 6.27627 5.26207L5.12216 6.41612C4.78792 6.74996 4.77675 7.3016 5.12186 7.6463L5.91887 8.44331C6.16475 8.68919 6.2129 9.07036 6.03592 9.36966C5.60565 10.0972 5.28065 10.8802 5.06986 11.697C4.98302 12.0334 4.67966 12.2684 4.33231 12.2684H3.20761C2.72788 12.2684 2.33752 12.6587 2.33752 13.1384V14.7702C2.33752 15.25 2.72788 15.6403 3.20761 15.6403H4.33226C4.67966 15.6403 4.98297 15.8753 5.06981 16.2116C5.2806 17.0284 5.60565 17.8115 6.03587 18.539C6.21284 18.8383 6.1647 19.2194 5.91882 19.4653L5.12211 20.262C4.77772 20.606 4.7867 21.1575 5.12181 21.4922L6.27581 22.6462C6.61031 22.9812 7.162 22.991 7.50599 22.6465L8.30295 21.8495C8.48414 21.6684 8.86109 21.5147 9.2294 21.7325Z" fill="white"/>
<path d="M13.814 19.6114C10.6947 19.6114 8.15698 17.0736 8.15698 13.9543C8.15698 10.835 10.6947 8.2973 13.814 8.2973C16.9334 8.2973 19.471 10.835 19.471 13.9543C19.471 17.0736 16.9334 19.6114 13.814 19.6114ZM13.814 9.82074C11.5347 9.82074 9.68042 11.6751 9.68042 13.9543C9.68042 16.2336 11.5347 18.0879 13.814 18.0879C16.0933 18.0879 17.9476 16.2336 17.9476 13.9543C17.9476 11.6751 16.0933 9.82074 13.814 9.82074Z" fill="white"/>
</svg>
