<svg width="28" height="29" viewBox="0 0 28 29" fill="none" xmlns="http://www.w3.org/2000/svg">
<g clip-path="url(#clip0_39677_2)">
<path d="M12.585 28.244C10.3668 28.0121 8.2374 27.2477 6.37802 26.016C4.80902 24.98 4.45502 24.554 4.45502 23.7C4.45502 21.993 6.31002 19 9.48502 15.593C11.285 13.657 13.799 11.393 14.07 11.449C14.598 11.568 18.819 15.734 20.4 17.695C22.9 20.795 24.047 23.335 23.464 24.466C23.02 25.326 20.264 27.008 18.245 27.654C16.4125 28.2059 14.492 28.4061 12.585 28.244ZM2.33502 21.929C1.01247 19.8546 0.228451 17.483 0.0540205 15.029C-0.0464373 13.8736 0.0338604 12.7096 0.292021 11.579C0.753956 8.98184 1.93105 6.56497 3.69102 4.6C4.39102 3.864 4.45502 3.844 5.31002 4.136C6.76586 4.76811 8.07987 5.68628 9.17402 6.836L10.174 7.755L9.62502 8.436C7.07573 11.6015 4.97713 15.1047 3.38902 18.846C2.87927 19.9899 2.69484 21.2521 2.85602 22.494C3.01502 22.919 2.86902 22.761 2.33302 21.931L2.33502 21.929ZM25.228 22.273C25.3094 21.2599 25.1674 20.2412 24.812 19.289C23.2746 15.5077 21.2106 11.9626 18.681 8.759L17.881 7.742L18.746 6.942C19.5922 6.11796 20.5161 5.37784 21.505 4.732C22.1194 4.32901 22.8112 4.0589 23.536 3.939C23.788 3.939 24.679 4.876 25.397 5.895C26.5407 7.54717 27.3383 9.41359 27.742 11.382C28.0139 13.1469 28.0284 14.9419 27.785 16.711C27.5503 17.8603 27.1984 18.9824 26.735 20.06C26.3225 20.9231 25.8427 21.7523 25.3 22.54C25.125 22.766 25.125 22.766 25.222 22.278L25.228 22.273ZM12.816 3.453C11.5534 2.81869 10.2177 2.34147 8.83902 2.032C8.40032 1.96572 7.95642 1.94028 7.51302 1.956C6.68902 1.998 6.72602 1.956 8.04702 1.323C9.0819 0.818621 10.1772 0.448944 11.306 0.223001C13.0955 -0.0748549 14.9218 -0.0772197 16.712 0.216C18.1923 0.529784 19.6165 1.06621 20.936 1.807L21.23 1.989L20.557 1.955C18.6711 2.03214 16.8292 2.54851 15.178 3.463C14.7827 3.67102 14.3753 3.85535 13.958 4.015C13.918 4.007 13.404 3.754 12.814 3.451L12.816 3.453Z" fill="#107C10"/>
</g>
<defs>
<clipPath id="clip0_39677_2">
<rect width="27.958" height="28.302" fill="white"/>
</clipPath>
</defs>
</svg>
